<?xml version="1.0" standalone="no"?><!DOCTYPE svg PUBLIC "-//W3C//DTD SVG 1.1//EN" "http://www.w3.org/Graphics/SVG/1.1/DTD/svg11.dtd"><svg t="1731489156927" class="icon" viewBox="0 0 1024 1024" version="1.1" xmlns="http://www.w3.org/2000/svg" p-id="10715" xmlns:xlink="http://www.w3.org/1999/xlink" width="200" height="200"><path d="M899.5 899.5h-775v-775h775v775z" fill="#FFFFFF" fill-opacity="0.75" p-id="10716"></path><path d="M137 137v750h750V137H137m-25-25h800v800H112V112z" fill="#000000" p-id="10717" data-spm-anchor-id="a313x.collections_detail.0.i67.784d3a81Rw3gxH" class="selected"></path><path d="M597.681 335.009c0-7.67-2.36-13.569-7.08-17.109a35.115 35.115 0 0 0-20.061-5.9c-3.54 0-6.49 1.77-10.029 4.13-3.54 2.95-6.49 5.31-8.26 7.08a75.758 75.758 0 0 0-11.211 13.569c-3.54 4.72-7.67 9.44-11.209 13.569-11.209 12.979-23.009 27.139-35.988 41.3-13.569 14.749-26.549 27.729-38.938 39.528-1.18 1.18-2.95 2.36-4.13 3.54l-4.72 2.36c-1.77 1.18-3.54 1.77-4.72 2.95l-5.31 3.54c-2.95 2.36-5.31 4.13-7.08 5.9-2.36 2.36-2.95 4.13-2.95 5.9 0 7.08 2.95 12.389 10.03 16.519 5.9 4.72 12.979 6.49 20.059 6.49a31.985 31.985 0 0 0 14.756-3.543c4.13-2.36 8.26-5.9 12.979-10.619 2.95-3.54 6.49-7.67 11.209-12.979l11.8-12.979c2.95-2.95 7.67-7.67 13.569-14.159s12.389-14.159 20.649-23.009c-1.77 9.44-3.54 20.649-4.72 33.628-2.36 12.979-4.13 25.959-5.9 40.118l-4.72 41.888c-1.18 14.159-2.36 27.729-2.95 39.528-1.18 22.419-2.36 44.838-2.95 67.257q-1.77 33.628-1.77 58.407c0 9.44 2.36 16.519 7.67 21.829 5.31 5.9 12.389 8.26 21.829 8.26a43.479 43.479 0 0 0 15.929-3.54c4.72-2.36 7.67-5.31 7.67-8.85 0-1.77-0.59-5.31-0.59-11.209a149.392 149.392 0 0 1-2.36-18.879 116.91 116.91 0 0 1-2.36-21.239 132.008 132.008 0 0 1-1.18-20.649c0-41.3 1.18-82.6 4.72-124.484 3.54-41.3 10.03-82.6 20.649-123.3a106.366 106.366 0 0 1 2.95-11.209l2.36-11.209 1.77-11.209c-0.002-3.547 0.588-7.086 0.588-11.216z" fill="#000000" p-id="10718" data-spm-anchor-id="a313x.collections_detail.0.i68.784d3a81Rw3gxH" class="selected"></path></svg>