<?xml version="1.0" standalone="no"?><!DOCTYPE svg PUBLIC "-//W3C//DTD SVG 1.1//EN" "http://www.w3.org/Graphics/SVG/1.1/DTD/svg11.dtd"><svg t="1731488756975" class="icon" viewBox="0 0 1024 1024" version="1.1" xmlns="http://www.w3.org/2000/svg" p-id="5160" xmlns:xlink="http://www.w3.org/1999/xlink" width="200" height="200"><path d="M899.5 899.5h-775v-775h775v775z" fill="#FFFFFF" fill-opacity="0.75" p-id="5161"></path><path d="M137 137v750h750V137H137m-25-25h800v800H112V112z" fill="#000000" p-id="5162" data-spm-anchor-id="a313x.collections_detail.0.i20.19cd3a81ug4Ep0" class="selected"></path><path d="M657.703 576.92a85.081 85.081 0 0 0-6.987-34.934 112.5 112.5 0 0 0-20.378-26.783 144.785 144.785 0 0 0-30.858-18.632 235.7 235.7 0 0 0-39.01-13.392c18.632-12.227 32.023-25.036 40.175-37.846 7.569-12.809 11.645-27.948 11.645-46q0-24.454-10.48-41.921a83.792 83.792 0 0 0-27.948-27.365 137.352 137.352 0 0 0-38.428-13.974c-13.974-2.329-27.948-4.076-41.921-4.076-11.063 0-22.707 1.747-34.935 4.076-12.809 3.493-23.872 6.987-34.352 11.645a112.161 112.161 0 0 0-26.2 16.3c-6.987 5.822-9.9 12.227-9.9 18.049 0 6.4 1.747 12.227 6.4 16.885q6.114 6.987 13.974 6.987c4.658 0 11.063-1.165 18.632-4.658l10.48-5.24c3.493-1.747 6.987-3.493 11.063-5.822 8.151-4.076 16.885-8.151 27.365-12.809a72.374 72.374 0 0 1 28.53-6.4c6.987 0 13.974 1.164 21.543 2.329a63.6 63.6 0 0 1 20.961 6.987A47.5 47.5 0 0 1 561.63 374.3a47.5 47.5 0 0 1 5.822 23.29c0 11.645-2.911 22.125-8.151 30.277a87.655 87.655 0 0 1-20.375 23.293c-8.151 6.4-16.3 11.645-25.036 15.138-9.316 4.076-16.885 6.987-23.29 8.151a73.787 73.787 0 0 1-19.8 2.329h-8.73c-5.822 0-11.063 1.165-16.3 2.329-5.822 1.747-9.316 3.493-11.063 5.24q-5.24 5.24-5.24 13.974c0 6.987 2.911 12.809 9.316 18.049 5.822 5.24 11.645 7.569 18.049 7.569a39.141 39.141 0 0 0 13.974-2.329 121.947 121.947 0 0 0 13.392-4.658 131.023 131.023 0 0 1 13.974-4.658 58.658 58.658 0 0 1 14.556-1.747 44.323 44.323 0 0 1 12.227 1.747 68.1 68.1 0 0 0 11.645 2.911 223.811 223.811 0 0 1 23.29 8.151 134.883 134.883 0 0 1 22.125 12.227 83.352 83.352 0 0 1 16.3 18.632 53.9 53.9 0 0 1 6.4 25.619c0 15.721-3.493 29.112-9.9 40.175a98.842 98.842 0 0 1-26.783 29.112 108.382 108.382 0 0 1-36.1 16.885 132.12 132.12 0 0 1-39.01 5.822c-14.556 0-30.277-2.911-46.579-9.316a62.636 62.636 0 0 1-16.885-7.569c-5.24-2.911-10.48-5.822-15.721-9.316-3.493-1.747-6.4-3.493-8.734-4.658a63.512 63.512 0 0 1-6.4-3.493c-4.658-2.329-8.734-4.076-11.645-4.076-5.822 0-10.48 2.329-14.556 6.4-4.658 4.076-6.4 9.316-6.4 15.721 0 6.987 2.329 13.392 7.569 18.049a46.313 46.313 0 0 0 15.719 12.811 149.475 149.475 0 0 0 25.036 9.9c9.316 3.493 19.214 5.822 29.694 8.151a264.49 264.49 0 0 0 29.694 5.24 132.026 132.026 0 0 0 24.454 2.329 180.016 180.016 0 0 0 57.06-9.316c18.632-5.822 36.1-13.974 51.237-25.619a145.407 145.407 0 0 0 37.263-42.5q13.975-24.458 13.975-57.646z" fill="#000000" p-id="5163" data-spm-anchor-id="a313x.collections_detail.0.i19.19cd3a81ug4Ep0" class="selected"></path></svg>