<?xml version="1.0" standalone="no"?><!DOCTYPE svg PUBLIC "-//W3C//DTD SVG 1.1//EN" "http://www.w3.org/Graphics/SVG/1.1/DTD/svg11.dtd"><svg t="1731488775547" class="icon" viewBox="0 0 1024 1024" version="1.1" xmlns="http://www.w3.org/2000/svg" p-id="5596" xmlns:xlink="http://www.w3.org/1999/xlink" width="200" height="200"><path d="M899.5 899.5h-775v-775h775v775z" fill="#FFFFFF" fill-opacity="0.75" p-id="5597"></path><path d="M137 137v750h750V137H137m-25-25h800v800H112V112z" fill="#000000" p-id="5598" data-spm-anchor-id="a313x.collections_detail.0.i27.19cd3a81ug4Ep0" class="selected"></path><path d="M661.474 584.399c0-13.315-7.767-20.527-22.191-20.527a176.761 176.761 0 0 0-24.965 1.668c-8.322 1.664-14.424 2.774-18.863 3.883-0.555-7.212-0.555-13.315-0.555-18.863a150.627 150.627 0 0 1 0.555-15.534c0-7.767 0-17.2 0.555-29.4 0-11.65 0.555-24.965 1.664-39.39 0-14.424 1.11-29.4 2.219-46.047 0.555-16.089 1.664-32.732 2.774-49.376a102.148 102.148 0 0 1 1.664-18.308A103.754 103.754 0 0 0 606 333.64c0-3.329-1.664-6.1-3.883-8.877-2.774-2.219-5.548-4.438-8.877-6.657a50.135 50.135 0 0 0-11.65-4.438 44.807 44.807 0 0 0-10.541-1.664c-3.329 0-6.657 1.11-9.986 2.219a27.742 27.742 0 0 0-8.877 6.1 73.661 73.661 0 0 0-6.657 8.877c-2.219 3.329-4.438 6.1-6.1 8.877q-36.616 49.1-74.9 94.868c-25.523 31.066-49.929 62.689-73.79 95.421-3.329 3.883-6.1 8.322-9.431 12.76a141.092 141.092 0 0 0-8.877 15.534 118.758 118.758 0 0 0-6.657 15.534A39.233 39.233 0 0 0 363 587.173q0 11.65 4.993 19.972a43.321 43.321 0 0 0 13.315 14.98 65.775 65.775 0 0 0 18.863 8.877 62.063 62.063 0 0 0 19.972 2.774 93.764 93.764 0 0 0 16.644-1.664c5.548-0.555 11.65-1.664 17.753-2.774 5.548-1.11 11.1-2.219 16.644-3.883 5.548-1.11 11.1-2.774 16.644-3.883 9.431-2.219 19.417-3.883 29.958-6.1 9.986-2.219 21.082-3.883 34.4-6.1l-1.11 43.273c-1.11 13.315-1.11 22.746-1.11 27.184 0 21.637 8.877 32.178 26.63 32.178a33.433 33.433 0 0 0 16.089-4.438 16.876 16.876 0 0 0 7.212-14.424 115.064 115.064 0 0 0-3.329-27.739c-2.219-8.877-2.774-18.308-2.774-28.294v-32.74l49.931-1.11a16.066 16.066 0 0 0 12.76-5.548q4.989-4.993 4.989-13.315zM559.949 370.807l-7.213 203.606c-8.322 2.219-18.308 4.438-30.513 6.657l-36.616 6.657c-12.205 2.219-23.856 4.438-34.951 5.548a180.873 180.873 0 0 1-25.52 2.219 19.6 19.6 0 0 1-9.436-2.218c-3.329-1.664-4.993-3.883-4.993-7.212 0-4.438 1.664-11.1 6.1-19.417 4.438-7.767 9.431-16.089 15.534-24.965 5.548-8.322 11.1-16.089 16.644-23.856s10.541-13.315 13.87-17.753c14.424-18.308 29.958-38.28 46.6-60.472 16.097-21.637 32.745-44.383 50.494-68.794z" fill="#000000" p-id="5599" data-spm-anchor-id="a313x.collections_detail.0.i26.19cd3a81ug4Ep0" class="selected"></path></svg>