<?xml version="1.0" standalone="no"?><!DOCTYPE svg PUBLIC "-//W3C//DTD SVG 1.1//EN" "http://www.w3.org/Graphics/SVG/1.1/DTD/svg11.dtd"><svg t="1731488789185" class="icon" viewBox="0 0 1024 1024" version="1.1" xmlns="http://www.w3.org/2000/svg" p-id="5812" xmlns:xlink="http://www.w3.org/1999/xlink" width="200" height="200"><path d="M899.5 899.5h-775v-775h775v775z" fill="#FFFFFF" fill-opacity="0.75" p-id="5813"></path><path d="M137 137v750h750V137H137m-25-25h800v800H112V112z" fill="#000000" p-id="5814" data-spm-anchor-id="a313x.collections_detail.0.i31.19cd3a81ug4Ep0" class="selected"></path><path d="M651.656 567.014c0-30.946-12.607-55.587-36.676-74.5-12.607-8.6-25.788-14.327-40.115-16.619a380.238 380.238 0 0 0-44.126-2.865c-13.754 0-28.08 1.719-41.834 4.011q-20.63 5.158-44.7 12.034c1.719-21.777 3.438-41.834 5.731-60.172l4.585-57.88c20.63-1.719 40.115-4.011 58.453-6.3l54.441-8.6q5.158-0.86 12.034-1.719a49.158 49.158 0 0 0 12.607-1.146l12.034-2.292a25.706 25.706 0 0 0 10.888-2.865 20 20 0 0 0 5.158-3.438 16.459 16.459 0 0 0 1.146-6.877c0-2.292-1.719-5.158-4.585-8.6a76.24 76.24 0 0 0-10.888-8.023l-13.754-6.877c-4.585-1.146-8.6-2.292-10.888-2.292a24.372 24.372 0 0 0-6.3 1.146 27.935 27.935 0 0 1-6.3 2.292l-7.45 2.292c-2.865 1.146-5.158 1.719-6.877 2.292a378.036 378.036 0 0 1-48.138 9.169 400 400 0 0 1-51.576 2.865c-4.011-3.438-7.45-6.3-10.315-7.45-3.438-1.146-7.45-2.292-10.888-2.292a29.107 29.107 0 0 0-9.742 1.719 52.264 52.264 0 0 0-9.169 3.438q-5.163 10.323-6.882 30.955c-1.719 14.327-2.865 29.8-3.438 45.845-1.146 17.191-2.292 33.81-2.292 49.855-1.147 16.046-1.72 28.654-2.293 37.25l-1.146 7.45-1.146 8.023a80.6 80.6 0 0 0-1.715 16.045c0 1.719 0.573 3.438 2.292 5.731 1.146 2.292 3.438 4.011 5.731 5.731a42.743 42.743 0 0 0 6.877 4.011 13.062 13.062 0 0 0 6.3 1.719 36.95 36.95 0 0 0 11.46-1.719 72.37 72.37 0 0 0 10.315-4.585c3.438-1.719 7.45-4.011 11.461-6.3a126.2 126.2 0 0 1 12.035-5.156c11.461-3.438 22.35-6.3 33.238-7.45a304.949 304.949 0 0 1 34.384-2.292 113.037 113.037 0 0 1 27.507 3.433 79.162 79.162 0 0 1 23.5 10.316c6.877 4.585 12.034 10.888 16.619 18.911 4.011 8.023 6.3 17.765 6.3 29.226a103.619 103.619 0 0 1-9.169 43.556c-6.877 12.607-14.9 22.923-25.215 30.946-10.315 8.6-22.35 14.9-35.53 19.484a128.972 128.972 0 0 1-41.261 6.3c-13.754 0-26.361-1.719-36.676-5.158a134.677 134.677 0 0 1-28.653-12.034 54.192 54.192 0 0 1-11.461-6.3c-3.438-1.719-6.3-3.438-9.169-5.158a61.559 61.559 0 0 1-8.6-4.011 42.318 42.318 0 0 0-6.877-1.146c-5.731 0-9.742 2.292-13.181 5.731-4.011 4.585-5.731 9.742-5.731 16.046a23.326 23.326 0 0 0 6.877 17.192c4.585 5.158 9.742 9.169 16.046 11.461q6.877 3.438 20.63 6.877a177.1 177.1 0 0 0 26.365 6.87c9.169 1.719 18.338 3.438 27.507 4.585 8.6 1.146 16.046 2.292 21.777 2.292a218.274 218.274 0 0 0 61.891-8.6c19.484-5.731 36.676-14.327 51.576-26.934q21.49-17.192 34.384-44.7c8.023-18.33 12.607-39.534 12.607-64.749z" fill="#000000" p-id="5815" data-spm-anchor-id="a313x.collections_detail.0.i30.19cd3a81ug4Ep0" class="selected"></path></svg>