<?xml version="1.0" standalone="no"?><!DOCTYPE svg PUBLIC "-//W3C//DTD SVG 1.1//EN" "http://www.w3.org/Graphics/SVG/1.1/DTD/svg11.dtd"><svg t="1727442989550" class="icon" viewBox="0 0 1024 1024" version="1.1" xmlns="http://www.w3.org/2000/svg" p-id="49132" xmlns:xlink="http://www.w3.org/1999/xlink" width="200" height="200"><path d="M429.709241 681.207172c-9.039448 0-18.078897-3.442759-24.964414-10.345931l-174.238897-174.238897c-13.78869-13.78869-13.78869-36.140138 0-49.928828 13.771034-13.78869 36.157793-13.78869 49.928828 0l174.238897 174.238897c13.78869 13.78869 13.78869 36.140138 0 49.928828C447.788138 677.764414 438.74869 681.207172 429.709241 681.207172z" fill="#000000" p-id="49133" style=""></path><path d="M429.709241 681.189517c-9.039448 0-18.078897-3.442759-24.964414-10.345931-13.78869-13.78869-13.78869-36.140138 0-49.928828l350.914207-350.896552c13.78869-13.78869 36.140138-13.78869 49.928828 0 13.78869 13.78869 13.78869 36.140138 0 49.928828L454.673655 670.843586C447.788138 677.746759 438.74869 681.189517 429.709241 681.189517z" fill="#000000" p-id="49134" style=""></path><path d="M745.560276 1008.110345l-51.941517 0c-19.49131 0-35.310345-15.819034-35.310345-35.310345s15.819034-35.310345 35.310345-35.310345l51.941517 0C783.254069 930.321655 942.027034 771.124966 953.37931 728.064L953.37931 233.683862c0-79.660138-64.794483-144.454621-144.436966-144.454621L217.882483 89.229241c-79.642483 0-144.454621 64.794483-144.454621 144.454621l0 559.351172c0 79.660138 64.794483 144.454621 144.454621 144.454621l251.93931 0c19.49131 0 35.310345 15.819034 35.310345 35.310345s-15.819034 35.310345-35.310345 35.310345l-251.93931 0C99.310345 1008.110345 2.824828 911.624828 2.824828 793.035034L2.824828 233.683862c0-118.589793 96.485517-215.07531 215.07531-215.07531l591.059862 0C927.532138 18.608552 1024 115.094069 1024 233.683862l0 495.986759C1024 799.938207 815.827862 1008.110345 745.560276 1008.110345z" fill="#000000" p-id="49135" style=""></path><path d="M689.822897 1002.743172c-19.49131 0-35.310345-15.819034-35.310345-35.310345l0-130.489379c0-106.831448 86.916414-193.730207 193.765517-193.730207l114.546759 0c19.49131 0 35.310345 15.819034 35.310345 35.310345s-15.819034 35.310345-35.310345 35.310345l-114.546759 0c-67.901793 0-123.144828 55.225379-123.144828 123.109517l0 130.489379C725.133241 986.924138 709.331862 1002.743172 689.822897 1002.743172z" fill="#000000" p-id="49136"></path></svg>