<?xml version="1.0" standalone="no"?><!DOCTYPE svg PUBLIC "-//W3C//DTD SVG 1.1//EN" "http://www.w3.org/Graphics/SVG/1.1/DTD/svg11.dtd"><svg t="1735469342508" class="icon" viewBox="0 0 1024 1024" version="1.1" xmlns="http://www.w3.org/2000/svg" p-id="8584" xmlns:xlink="http://www.w3.org/1999/xlink" width="200" height="200"><path d="M848.2 410.5L733.1 352c-66.9-52.2-72.1-195.7-68.4-247.1 0.8-10.9-3.3-21.5-11.3-29.5-8-7.9-19.2-12.5-30.9-12.4H227.2c-22.3 0-40.6 16.1-42.1 36.5-0.9 6.6-2.3 20.7 2 102.2 4.9 94.6-24.7 183.6-40.4 217.5l-15.6 31.6c-10.2 25.3-18.3 50.1-19.8 73.9-2.8 45.6 19.9 79.7 64.1 96.1 10 3.7 20 5.6 29.8 5.7 1.7 7.3 4.1 14.5 7.5 21.4 9.1 18.4 28.5 42.5 70 52.8 20.8 5.2 41.5 4.3 60.7-2.5 1.4 3.6 3 7.2 4.8 10.6 12.1 23.4 32.8 39.8 59.7 47.4 23.7 6.8 47.2 5.5 68.6-3.7v84.1c0 67.4 59 122.2 131.6 122.2 68.8 0 116.8-50.2 116.8-122.2v-0.1l-0.8-200.4c104.3 32.6 165.8-22.7 184-57.3 31.5-60.7 3.5-139.1-59.9-168.3zM357 113.6c24.2 0 43.8 19.6 43.8 43.8 0 24.2-19.6 43.8-43.8 43.8-24.2 0-43.8-19.6-43.8-43.8 0-24.2 19.6-43.8 43.8-43.8z m475.1 430.8c-5.3 8.9-25.8 34.2-79.4 18.2L703.8 534c-13-7.6-29.5-8.1-42.9-1.1-13.5 6.9-21.8 20.1-21.8 34.5l1.1 269.6c0 36.1-17.6 43.8-32.4 43.8-26 0-47.1-19.6-47.1-43.8V625.3c0-20.1-16.3-36.9-37.8-38.9-21.5-2.1-41.2 11.3-45.7 30.9-4.9 21.3-21.2 53.2-35.8 61.2-3.4 1.8-9.8 2.8-14.9 1-2.6-0.9-5.8-4.4-8-7.2-7.8-10.1-6.6-21.2 8.6-66.5 5.1-15.1 9.1-26.2 9.9-29.1 5.1-20.1-7.4-40.3-28.5-46.4-21.1-6.1-43.8 4-51.9 23.1-2 4.6-4.6 17.8-10.2 28.8-8.6 16.8-18.7 35.1-30.3 41.5-3.4 1.9-7.6 3.6-13 2.3-11.7-2.9-12.7-8.3-13.8-10.4-8.6-17.3 3.1-55.5 13.6-75.7 2.5-4.8 3.9-9.8 4.2-14.9 0.9-13.8-8.1-29.5-21.7-36.7-16.6-8.8-40-4.7-53.9 12.5-5.9 7.3-6.8 11.9-10.1 17.8-6.8 16.1-11.4 25.9-18.1 28.2-6.1 2.2-12.1-3.7-11.3-15.5 1-16.8 9.9-43.6 21.5-61.3 9.5-14.6 20.9-39.4 33.8-82.5 10.6-35.3 22.2-86.4 24.4-144.7h317.5c12.1 63.2 38.5 132 94.3 172.8 1.8 1.3 3.8 2.5 5.9 3.6l119.3 60.7c0.7 0.3 1.3 0.6 1.9 0.9 21.4 9.4 32.3 42.2 21.5 63.6z" p-id="8585" fill="#2c2c2c"></path></svg>