<?xml version="1.0" standalone="no"?><!DOCTYPE svg PUBLIC "-//W3C//DTD SVG 1.1//EN" "http://www.w3.org/Graphics/SVG/1.1/DTD/svg11.dtd"><svg t="1731488918637" class="icon" viewBox="0 0 1024 1024" version="1.1" xmlns="http://www.w3.org/2000/svg" p-id="8630" xmlns:xlink="http://www.w3.org/1999/xlink" width="200" height="200"><path d="M899.5 899.5h-775v-775h775v775z" fill="#FFFFFF" fill-opacity="0.75" p-id="8631"></path><path d="M137 137v750h750V137H137m-25-25h800v800H112V112z" fill="#000000" p-id="8632" data-spm-anchor-id="a313x.collections_detail.0.i54.388a3a81mDM9LX" class="selected"></path><path d="M658.411 331.326a19.065 19.065 0 0 0-5.857-13.47c-4.1-3.514-8.785-5.857-14.641-5.857-3.514 0-8.2 0.586-14.056 0.586-5.857 0.586-11.713 1.171-18.741 1.757l-20.5 1.171-19.327 1.171-103.071 4.686c-15.227 1.171-29.283 1.757-42.167 2.928-13.47 1.171-23.426 3.514-29.283 6.442q-5.271 2.635-7.028 7.028a21.618 21.618 0 0 0-1.171 7.613c0 9.956 7.028 16.984 21.669 21.083 0 12.884-0.586 24.012-0.586 33.968l-2.342 60.323a313.5 313.5 0 0 0-1.757 33.968c-4.685 1.757-7.613 2.343-8.785 2.343h-6.442a29.764 29.764 0 0 0-12.884 6.442c-4.685 3.514-6.442 7.614-6.442 11.713 0 6.442 1.757 11.127 5.857 14.641 3.514 4.1 7.028 5.857 11.713 5.857h5.857c1.757 0 4.685-0.586 9.37-1.171-1.172 4.685-1.757 11.127-2.343 18.74-1.171 8.2-2.343 16.4-2.928 24.6l-2.343 25.766a149.641 149.641 0 0 0-1.171 21.669c0 7.028 0 13.47 1.171 19.912a41.455 41.455 0 0 0 5.857 18.741c3.514 9.37 10.542 17.57 20.5 23.426a111.817 111.817 0 0 0 31.625 14.641 148.88 148.88 0 0 0 36.31 8.2c12.884 1.171 24.012 1.757 34.553 1.757 18.155 0 35.725-0.586 53.294-1.757 16.4-1.171 33.968-3.514 52.123-5.857l9.956-1.757 10.542-3.514c3.514-1.171 5.856-3.514 8.2-5.857a11.919 11.919 0 0 0 3.514-8.785 14.36 14.36 0 0 0-3.514-9.37 39.416 39.416 0 0 0-8.785-8.2 101.768 101.768 0 0 0-11.127-5.857 47.342 47.342 0 0 0-11.713-1.757 152.7 152.7 0 0 0-28.118 2.931c-4.685 1.171-8.2 1.757-11.713 2.343q-6.149 0.878-10.542 1.757c-9.37 1.757-18.741 2.928-29.283 4.1a273.274 273.274 0 0 1-30.454 1.757 201.481 201.481 0 0 1-26.94-1.757c-8.785-0.586-16.984-2.343-24.012-5.857-7.613-2.343-13.47-7.028-18.155-12.884-4.685-5.271-6.442-12.884-6.442-22.255a474.228 474.228 0 0 1 2.343-47.438l4.685-51.537c22.255-1.757 46.852-3.514 73.206-5.271s50.366-4.1 72.621-6.442a31.336 31.336 0 0 0 16.4-6.442c4.1-2.928 6.442-7.613 6.442-14.056a21.266 21.266 0 0 0-6.442-15.227 22.937 22.937 0 0 0-15.227-5.271c-5.857 0-12.3 0.586-18.741 1.171l-21.083 2.343-22.252 1.756-26.354 2.343-28.697 2.347-26.94 2.338c1.171-22.255 1.757-43.338 2.343-63.25l1.757-61.493q24.6-1.757 43.924-3.514c11.713-0.586 25.183-1.171 40.41-2.343 16.4-1.171 34.553-1.757 53.88-1.757a381.737 381.737 0 0 0 53.294-3.514 19.023 19.023 0 0 0 12.884-7.028c2.342-3.514 4.099-8.785 4.099-15.813z" fill="#000000" p-id="8633" data-spm-anchor-id="a313x.collections_detail.0.i53.388a3a81mDM9LX" class="selected"></path></svg>