<?xml version="1.0" standalone="no"?><!DOCTYPE svg PUBLIC "-//W3C//DTD SVG 1.1//EN" "http://www.w3.org/Graphics/SVG/1.1/DTD/svg11.dtd"><svg t="1731483728186" class="icon" viewBox="0 0 1024 1024" version="1.1" xmlns="http://www.w3.org/2000/svg" p-id="12974" xmlns:xlink="http://www.w3.org/1999/xlink" width="200" height="200"><path d="M326.997333 187.733333h386.901334v147.968A90.965333 90.965333 0 0 1 622.762667 426.666667h-204.8a90.965333 90.965333 0 0 1-90.965334-90.965334V187.733333z" fill="#79DEB4" p-id="12975"></path><path d="M588.629333 367.274667V187.733333h-136.533333v179.541334a273.066667 273.066667 0 1 0 136.533333 0z" fill="#EDF4FF" p-id="12976"></path><path d="M520.362667 733.866667a413.696 413.696 0 0 1-273.066667-102.4 273.066667 273.066667 0 0 0 546.133333 0 413.525333 413.525333 0 0 1-273.066666 102.4z" fill="#D8E3F0" p-id="12977"></path><path d="M748.032 119.466667H292.864a34.133333 34.133333 0 0 0 0 68.266666h455.168a34.133333 34.133333 0 0 0 0-68.266666z" fill="#FFC670" p-id="12978"></path><path d="M520.362667 631.466667m-204.8 0a204.8 204.8 0 1 0 409.6 0 204.8 204.8 0 1 0-409.6 0Z" fill="#FFC670" p-id="12979"></path><path d="M520.362667 678.4a607.573333 607.573333 0 0 1-204.8-35.157333 204.8 204.8 0 0 0 408.405333 0 608.597333 608.597333 0 0 1-203.605333 35.157333z" fill="#FFA742" p-id="12980"></path><path d="M495.957333 512l-51.2 79.701333h51.2V750.933333h68.266667V512h-68.266667z" fill="#FFDEAD" p-id="12981"></path><path d="M954.709333 393.386667l-91.136-39.253334L844.117333 256a17.066667 17.066667 0 0 0-12.288-13.141333 17.066667 17.066667 0 0 0-17.066666 5.290666l-45.226667 51.2a17.066667 17.066667 0 0 0-4.266667 11.264v34.133334a105.984 105.984 0 0 1-10.581333 46.08 17.066667 17.066667 0 0 0 2.730667 18.944 325.461333 325.461333 0 0 1 73.386666 126.464 17.066667 17.066667 0 0 0 16.213334 12.117333h1.877333a17.066667 17.066667 0 0 0 15.189333-15.36l6.314667-60.586667 85.333333-48.469333a17.066667 17.066667 0 0 0 8.704-15.701333 17.066667 17.066667 0 0 0-9.728-14.848zM196.096 631.466667a327.168 327.168 0 0 1 10.581333-80.896 17.066667 17.066667 0 0 0-5.802666-17.066667l-38.058667-31.402667a17.066667 17.066667 0 0 0-17.066667-2.218666 17.066667 17.066667 0 0 0-9.898666 15.018666l-2.048 78.848-67.072 43.008a17.066667 17.066667 0 0 0-7.68 17.066667 17.066667 17.066667 0 0 0 11.264 13.994667l74.410666 26.453333 20.48 76.117333a17.066667 17.066667 0 0 0 13.141334 12.288h3.413333a17.066667 17.066667 0 0 0 13.482667-6.656l17.066666-21.674666a17.066667 17.066667 0 0 0 2.56-16.042667 324.266667 324.266667 0 0 1-18.773333-106.837333z" fill="#FFEFB0" p-id="12982"></path><path d="M703.829333 406.869333a107.861333 107.861333 0 0 0 27.136-71.168V204.8h17.066667a51.2 51.2 0 0 0 0-102.4H292.864a51.2 51.2 0 0 0 0 102.4h17.066667v130.901333a107.349333 107.349333 0 0 0 26.965333 71.168 290.133333 290.133333 0 1 0 366.933333 0zM292.864 170.666667a17.066667 17.066667 0 0 1 0-34.133334h455.168a17.066667 17.066667 0 0 1 0 34.133334z m403.968 34.133333v130.901333a73.045333 73.045333 0 0 1-21.162667 51.2 294.058667 294.058667 0 0 0-69.973333-32.597333V204.8z m-125.269333 0v141.312a295.936 295.936 0 0 0-51.2-4.778667 299.178667 299.178667 0 0 0-51.2 4.778667V204.8z m-136.533334 0v149.333333a290.133333 290.133333 0 0 0-69.802666 32.597334 73.045333 73.045333 0 0 1-21.162667-51.2V204.8z m85.333334 682.666667a256 256 0 1 1 256-256 256 256 0 0 1-256 256z" fill="#3D3D63" p-id="12983"></path><path d="M520.362667 409.6a221.866667 221.866667 0 1 0 221.866666 221.866667 221.866667 221.866667 0 0 0-221.866666-221.866667z m0 409.6a187.733333 187.733333 0 1 1 187.733333-187.733333 187.733333 187.733333 0 0 1-187.733333 187.733333z" fill="#3D3D63" p-id="12984"></path><path d="M564.224 494.933333h-68.266667a17.066667 17.066667 0 0 0-14.336 7.850667l-51.2 79.701333a17.066667 17.066667 0 0 0 14.336 26.282667h34.133334V750.933333a17.066667 17.066667 0 0 0 17.066666 17.066667h68.266667a17.066667 17.066667 0 0 0 17.066667-17.066667V512a17.066667 17.066667 0 0 0-17.066667-17.066667z m-17.066667 238.933334h-34.133333v-142.165334a17.066667 17.066667 0 0 0-17.066667-17.066666h-19.968L505.344 529.066667h41.813333zM954.709333 393.386667l-91.136-39.253334L844.117333 256a17.066667 17.066667 0 0 0-12.288-13.141333 17.066667 17.066667 0 0 0-17.066666 5.290666l-45.226667 51.2a17.066667 17.066667 0 0 0 25.6 22.528l22.528-25.6 14.336 72.192a17.066667 17.066667 0 0 0 9.898667 12.458667l68.266666 29.184-64.341333 35.84A17.066667 17.066667 0 0 0 836.266667 460.8l-6.485334 70.144a17.066667 17.066667 0 0 0 12.629334 18.090667 7.68 7.68 0 0 0 2.730666 0 17.066667 17.066667 0 0 0 18.602667-15.36l6.656-61.269334 85.333333-48.469333a17.066667 17.066667 0 0 0 8.704-15.701333 17.066667 17.066667 0 0 0-9.728-14.848zM189.610667 728.917333l-14.165334-52.906666a17.066667 17.066667 0 0 0-10.922666-11.605334l-50.176-17.066666 44.714666-29.184a17.066667 17.066667 0 0 0 7.68-13.824l1.365334-53.248 11.434666 9.216a17.066667 17.066667 0 0 0 21.333334-26.624l-38.058667-31.573334a17.066667 17.066667 0 0 0-17.066667-2.218666 17.066667 17.066667 0 0 0-9.898666 15.018666l-2.048 78.848-67.072 43.008a17.066667 17.066667 0 0 0-7.68 17.066667 17.066667 17.066667 0 0 0 11.264 13.994667l74.410666 26.453333 20.48 76.117333a17.066667 17.066667 0 0 0 13.141334 12.288 16.042667 16.042667 0 0 0 10.24-1.194666 17.066667 17.066667 0 0 0 6.656-5.12l17.066666-21.674667a17.066667 17.066667 0 0 0-22.186666-25.088z" fill="#3D3D63" p-id="12985"></path></svg>