<?xml version="1.0" standalone="no"?><!DOCTYPE svg PUBLIC "-//W3C//DTD SVG 1.1//EN" "http://www.w3.org/Graphics/SVG/1.1/DTD/svg11.dtd"><svg t="1731488883800" class="icon" viewBox="0 0 1024 1024" version="1.1" xmlns="http://www.w3.org/2000/svg" p-id="8182" xmlns:xlink="http://www.w3.org/1999/xlink" width="200" height="200"><path d="M899.5 899.5h-775v-775h775v775z" fill="#FFFFFF" fill-opacity="0.75" p-id="8183"></path><path d="M137 137v750h750V137H137m-25-25h800v800H112V112z" fill="#000000" p-id="8184" data-spm-anchor-id="a313x.collections_detail.0.i45.388a3a81mDM9LX" class="selected"></path><path d="M688.039 700.398c0-7.182-2.21-13.26-6.077-17.68-4.42-4.42-9.945-7.182-17.127-9.392l-5.525 1.1a120.62 120.62 0 0 1-34.254-14.365 99.8 99.8 0 0 1-12.707-9.945l-16.575-11.6a204.649 204.649 0 0 0 23.2-36.464 268.988 268.988 0 0 0 16.575-39.227 336.122 336.122 0 0 0 8.843-40.885 320.849 320.849 0 0 0 2.762-39.779c0-16.575-2.762-34.807-7.735-54.7a247.875 247.875 0 0 0-23.2-55.8 160.173 160.173 0 0 0-39.227-42.541 91.548 91.548 0 0 0-54.144-17.127q-44.751 0-79.558 19.889c-23.2 13.812-43.094 30.939-58.564 51.934-16.577 21.002-28.732 44.759-37.019 70.724A233.924 233.924 0 0 0 335 530.232a217.168 217.168 0 0 0 8.287 60.221c5.525 19.337 13.813 36.464 25.967 51.381 11.05 15.47 25.967 27.624 43.646 36.464 17.68 9.392 38.674 13.812 62.983 13.812a180.042 180.042 0 0 0 48.066-6.63 145.234 145.234 0 0 0 45.3-22.652c4.972 3.867 9.945 7.182 14.365 10.5l13.812 9.392c3.867 3.315 8.84 6.077 14.365 9.392s11.05 6.077 17.127 9.392a189.087 189.087 0 0 0 18.785 7.182 52.4 52.4 0 0 0 17.68 3.315c4.972 0 9.945-1.1 15.47-2.21 4.423-2.211 7.186-4.973 7.186-9.393z m-83.426-209.392c0 19.89-3.867 40.884-11.05 61.878a216.481 216.481 0 0 1-31.492 60.221l-12.707-8.287c-4.972-3.315-9.945-6.077-14.917-9.392-5.525-3.315-11.05-6.077-16.022-9.392-5.525-2.21-9.945-3.867-12.707-3.867a22.911 22.911 0 0 0-13.812 4.42c-4.42 3.315-6.077 7.182-6.077 11.6 0 2.21 1.1 4.972 3.867 7.735a34.227 34.227 0 0 0 7.735 7.735 112.034 112.034 0 0 0 9.945 7.182 83.65 83.65 0 0 0 7.735 4.972 20.8 20.8 0 0 0 8.287 4.972c2.762 1.657 6.077 3.867 10.5 6.077q-15.746 11.6-29.834 14.917a104.574 104.574 0 0 1-28.177 3.867c-15.47 0-28.729-3.315-40.331-11.05a95.352 95.352 0 0 1-30.943-26.517 126.86 126.86 0 0 1-18.784-36.464 114.694 114.694 0 0 1-6.629-37.573 262.939 262.939 0 0 1 3.315-39.779 244.8 244.8 0 0 1 10.5-43.094 214.79 214.79 0 0 1 18.232-41.989 155.02 155.02 0 0 1 26.519-35.912 132.73 132.73 0 0 1 34.807-24.862 103.732 103.732 0 0 1 44.2-9.392c13.812 0 25.967 4.972 37.017 13.812 11.05 9.945 19.89 21.547 27.624 35.359 7.735 14.365 13.26 29.834 17.68 46.409 3.306 16.579 5.519 32.048 5.519 46.414z" fill="#000000" p-id="8185" data-spm-anchor-id="a313x.collections_detail.0.i46.388a3a81mDM9LX" class="selected"></path></svg>