<svg width="416" height="132" xmlns="http://www.w3.org/2000/svg" xmlns:xlink="http://www.w3.org/1999/xlink" overflow="hidden"><g><rect x="0" y="0" width="416" height="131.562" fill="#FFFFFF"/><g><g><g><path d="M238.573 21.9362C238.383 18.6977 237.64 15.5157 236.375 12.5287 235.847 9.20969 233.495 7.69305 231.979 5.29722 231.121 4.83563 229.781 4.83563 229.077 4.22019 228.374 3.60475 227.143 3.49484 226.549 2.7695 223.846 2.7695 222.417 0.571484 219.318 0.967127 203.141 1.58257 190.26 0.395643 174.478 0.967127 150.3-1.05505 124.935 0.747325 99.9877 0.967127L85.5248 0.967127C85.2171 1.86831 82.9971 0.131881 82.6234 0.967127L71.1937 0.967127C47.0156-0.615444 108.89 1.64851 83.9202 0.967127 64.5118 0.153861 44.5538 1.60455 24.2661 0.967127 23.9098 1.02909 23.5454 1.02909 23.1891 0.967127 20.1558 1.18693 17.3863 2.04415 14.5069 2.41782 12.4915 3.40742 10.4049 4.245 8.26454 4.92355 7.8689 5.95662 5.78078 5.3192 6.06652 7.12157 5.4291 7.64909 5.25326 7.45127 5.34118 6.39623 4.59385 6.39623 4.63781 7.38533 3.89049 7.47325 3.42937 8.62931 2.82376 9.72236 2.08811 10.7263 1.38475 11.8253 1.73643 14.0014 1.01109 15.1223 0.967127 18.5513 0.197821 21.3867 0.373663 25.1673 0.241782 31.7613 1.67049 39.894 0.0219802 45.7847 0.0219802 53.0821 0.0219802 60.2696 0.373663 67.1054 0.725345 73.9412 0.791286 81.1507 2.17604 86.8876 2.68158 87.8327 3.82455 88.1404 3.97841 89.4153 4.97319 90.4784 6.06197 91.4494 7.23147 92.3167 8.75933 92.752 10.2338 93.3565 11.6275 94.119 14.8415 95.3121 18.1221 96.3176 21.4526 97.1303 45.2791 97.8996 68.688 97.8117 93.4157 97.1303 104.713 97.438 116.737 96.383 128.848 96.405 137.156 95.9434 59.9179 95.9214 68.4022 96.0313 71.0493 96.2673 73.712 96.2673 76.3591 96.0313 82.7553 96.2951 88.0745 95.4378 94.4487 95.6796 96.4978 95.5396 98.5541 95.5396 100.603 95.6796L107.461 95.6796C112.077 95.6796 116.583 95.0862 121.199 95.306 121.199 95.306 121.396 95.6137 121.572 95.6796 122.412 95.7826 123.261 95.7826 124.1 95.6796 132.54 95.8335 140.519 95.4818 148.278 96.0313 154.066 96.379 159.873 96.2613 165.642 95.6796 184.326 94.8004 202.767 97.1083 220.593 95.6796 222.172 95.2007 223.658 94.4575 224.989 93.4816 226.549 92.7563 228.616 92.5365 230.044 91.6792 231.752 91.3904 233.226 90.316 234.023 88.7778 235.781 88.2503 236.463 86.5798 237.627 85.5248 239.342 78.7927 240.082 71.8496 239.825 64.9074 241.012 58.3134 240.463 50.3565 240.199 43.213 240.267 36.0872 239.723 28.9688 238.573 21.9362Z" fill="#2C2C2C" transform="matrix(1.57828 0 0 1 18.1626 16.9436)"/><path d="M236.001 58.3353C234.947 65.759 234.587 73.2646 234.924 80.7551 232.556 84.6003 229.181 87.7244 225.165 89.7889 220.659 89.9868 217.362 92.1188 212.152 91.5913 212.592 90.4483 180.237 91.7891 177.863 91.5913 178.391 88.8218 182.259 87.7008 181.116 84.3598 179.446 83.3487 178.171 85.3929 176.72 85.8105 175.512 86.6458 174.72 88.0085 173.467 88.7119 172.824 89.7178 172.335 90.8143 172.017 91.965L166.654 91.965C166.851 89.4592 169.423 87.5689 168.104 84.7335 165.401 84.7335 165.247 87.1953 163.4 87.9866 163.115 89.5032 162.126 90.3384 161.95 91.965L152.191 91.965C152.41 89.6351 155.532 88.0965 153.641 85.8105 151.289 85.5028 150.784 87.0414 150.015 88.3382 149.245 89.6351 148.52 90.6901 147.817 91.943L136.277 91.943C137.292 90.3268 137.797 88.4429 137.728 86.5359 135.53 86.2721 135.134 87.8107 134.101 88.7339 133.106 89.6906 132.254 90.7863 131.573 91.9869 128.342 91.9869 125.946 92.6244 122.539 92.3606 123.127 90.8886 123.984 89.5394 125.067 88.3822 125.375 86.9095 127.001 85.283 125.419 83.9862 123.067 83.9862 121.968 86.1842 121.023 87.9646 119.762 89.4031 118.671 90.9813 117.77 92.6683L111.615 92.6683C112.319 90.0087 114.517 88.8218 114.517 85.4369 112.319 84.4258 111.461 87.3491 110.121 88.3382 108.951 89.7385 107.865 91.2064 106.868 92.7343 104.115 93.1133 101.334 93.2384 98.559 93.1079 97.0424 93.2618 98.7349 92.0309 98.9107 91.6572 99.0646 90.7121 99.9877 90.5582 99.9877 89.4592 100.801 88.2283 102.054 87.4151 102.186 85.4808 101.95 84.6013 101.263 83.9143 100.383 83.6785 97.5919 83.9202 97.0204 86.3381 95.3279 87.6569 94.0531 89.3933 92.8442 91.1957 91.7232 93.086 88.8603 93.6146 85.952 93.8576 83.041 93.8113 83.6785 91.1297 87.6788 87.7008 84.4917 85.5028 81.6343 85.305 81.8101 88.1184 80.0957 89.1076 79.5682 91.3056 77.8977 92.2727 77.1943 94.163L69.3913 94.163C70.6222 91.1957 74.5787 87.8547 72.6444 84.0301 69.6112 84.0301 69.3913 87.0414 67.589 88.4262 66.6033 90.407 65.5176 92.3364 64.3359 94.2069 61.6785 94.0704 59.0141 94.1882 56.3791 94.5586 56.8187 91.6792 61.3686 88.602 58.5771 85.8765 57.0165 85.8765 56.9066 87.3491 56.0494 88.0745 55.1922 88.7998 54.5767 89.745 53.5217 90.2725 52.9282 91.8551 51.9831 93.086 51.3237 94.6685 46.9276 94.5147 45.5429 94.4927 42.2898 94.3168 43.235 91.7012 46.6858 88.8218 44.8175 85.6347 41.9381 85.6347 41.3007 87.6569 40.1138 89.2394 38.84 90.744 37.7413 92.3884 36.8387 94.141 33.3219 93.8553 30.2447 95.0862 27.0796 94.141 27.695 91.2616 30.2007 90.2725 29.9809 86.5578 29.871 85.7006 28.8599 85.7446 28.5302 85.1072 26.402 85.3277 24.581 86.7317 23.8265 88.7339 22.2659 89.9428 21.7604 92.2287 20.1998 93.4376 18.4796 93.3985 16.8671 92.5922 15.8037 91.2396 16.7928 88.4921 18.6392 86.6018 19.7821 84.0082 20.7932 82.0959 23.5847 79.0187 21.5845 76.425 19.5623 76.2272 19.2326 77.6779 18.3314 78.623 17.5056 79.5664 16.891 80.6756 16.5291 81.8761 15.474 82.6234 15.1004 84.0741 14.3311 85.1291 13.5618 86.1842 12.7265 86.8876 12.5287 88.3822 10.4847 87.4122 9.01258 85.5415 8.55028 83.3268 9.40751 82.1398 9.69325 80.3594 10.7483 79.3484 11.034 77.5899 12.3968 76.8866 12.9463 75.3699 13.8608 74.1528 14.6007 72.8136 15.1443 71.3915 16.1554 70.6882 16.7489 68.2923 15.518 67.4131 13.5667 67.5429 11.8059 68.629 10.8142 70.3145 9.33669 71.2635 8.19784 72.6563 7.56117 74.2929 6.06652 72.007 8.26454 69.5013 9.01186 67.3032 9.48648 66.1536 10.0912 65.0621 10.8142 64.0502 10.8142 62.4896 12.7265 62.8413 12.2649 60.7971 12.2649 59.5003 9.58335 59.3904 8.6382 60.0718 8.48434 60.7751 7.23147 60.3575 7.56117 61.5225 7.03365 61.3246 6.68197 62.9292 6.48415 61.8741L6.48415 48.9498C7.16553 46.488 9.09978 45.3011 9.73721 42.7954 11.1439 41.7843 12.9463 38.5752 11.1879 36.6409 9.99469 36.4704 8.79055 36.8691 7.93484 37.7179 7.93484 38.4433 6.94573 38.1795 7.20949 39.1686 6.68197 38.9708 6.33028 40.5754 6.13246 39.5203 5.82474 32.5746 7.20949 27.3433 7.20949 20.7273 7.67107 18.7711 8.44038 17.1445 9.01186 15.2982 10.0619 14.0474 11.024 12.7255 11.8913 11.3418 13.4635 11.1881 14.9027 10.3929 15.8697 9.14374 18.9689 9.47345 20.2657 7.91286 22.7275 7.69305 24.7057 7.01167 27.3433 6.98969 29.3215 6.24236L35.9156 6.24236C41.015 6.68197 46.3122 5.12138 50.7302 6.24236 54.7965 6.39623 59.5223 5.51702 63.0171 6.24236 70.0947 6.39623 77.9636 5.03346 83.9862 6.24236 104.208 5.9786 118.517 6.44019 137.86 6.24236 139.222 6.57207 140.915 5.82474 142.256 6.24236L151.136 6.24236C163.89 7.33578 176.715 7.33578 189.469 6.24236L195.623 6.24236C202.811 5.25326 212.306 7.25345 219.494 6.24236 189.498 7.019 180.435 7.019 192.304 6.24236 193.139 6.07936 193.997 6.07936 194.832 6.24236 197.624 5.29722 201.096 6.48415 204.591 6.24236 208.438 6.61603 212.592 5.23128 215.801 6.24236 222.211 5.90794 228.294 9.09257 231.671 14.5509 233.534 22.3035 235.001 30.1459 236.067 38.0476Z" fill="#FFFFFF" transform="matrix(1.57828 0 0 1 18.1626 16.9436)"/></g></g></g><text fill="#2C2D24" font-family="Comic Sans MS,Comic Sans MS_MSFontService,sans-serif" font-weight="700" font-size="29" transform="matrix(1 0 0 0.996682 58.8322 78)">Raw</text><text fill="#2C2D24" font-family="Comic Sans MS,Comic Sans MS_MSFontService,sans-serif" font-weight="700" font-size="29" transform="matrix(1 0 0 0.996682 114.043 78)">-</text><text fill="#2C2D24" font-family="Comic Sans MS,Comic Sans MS_MSFontService,sans-serif" font-weight="700" font-size="29" transform="matrix(1 0 0 0.996682 131.891 78)">domain Denoising</text></g></svg>