<?xml version="1.0" standalone="no"?><!DOCTYPE svg PUBLIC "-//W3C//DTD SVG 1.1//EN" "http://www.w3.org/Graphics/SVG/1.1/DTD/svg11.dtd"><svg t="1731488948880" class="icon" viewBox="0 0 1024 1024" version="1.1" xmlns="http://www.w3.org/2000/svg" p-id="9078" xmlns:xlink="http://www.w3.org/1999/xlink" width="200" height="200"><path d="M899.5 899.5h-775v-775h775v775z" fill="#FFFFFF" fill-opacity="0.75" p-id="9079"></path><path d="M137 137v750h750V137H137m-25-25h800v800H112V112z" fill="#000000" p-id="9080" data-spm-anchor-id="a313x.collections_detail.0.i62.388a3a81mDM9LX" class="selected"></path><path d="M667.3 336.294q0-3.39-3.39-8.475c-2.26-2.26-5.085-5.085-8.475-7.91a91.408 91.408 0 0 0-10.169-5.65c-3.39-1.13-6.78-2.26-9.6-2.26-5.085 0-11.3 1.695-18.079 3.955-3.955 1.13-7.345 2.26-10.734 3.39a75.263 75.263 0 0 1-10.734 2.825 669.733 669.733 0 0 1-76.271 9.04l-76.842 5.651c-10.169 1.13-20.339 1.13-30.508 1.13-10.734 0-21.469 0.565-31.638 1.13a40.021 40.021 0 0 1-7.91 0.565 28.358 28.358 0 0 0-6.78 1.13 19.536 19.536 0 0 0-6.78 3.955c-2.26 1.695-3.39 3.955-3.39 7.345a13.569 13.569 0 0 0 3.39 8.475 21.117 21.117 0 0 0 7.345 8.475 37.117 37.117 0 0 0 9.6 6.78 15.783 15.783 0 0 0 9.6 2.825 121.97 121.97 0 0 0 19.774-1.695c3.39-0.565 7.345-1.13 10.734-1.695s6.78-1.13 10.734-1.695c10.169-0.565 20.339-1.695 31.638-2.825 10.734-0.565 23.164-1.13 36.723-2.26q-5.085 49.153-10.169 108.475t-5.075 120.336c0 23.729 0.565 44.068 2.26 61.017 1.13 16.949 2.26 29.379 3.955 36.158 1.13 5.65 5.085 9.6 11.864 12.994a48.164 48.164 0 0 0 19.774 4.52 30.373 30.373 0 0 0 15.819-4.52c4.52-2.825 6.78-6.78 6.78-12.429a56.339 56.339 0 0 0-1.13-9.04l-2.26-9.04c-1.13-2.825-1.695-5.65-2.825-9.04a23.421 23.421 0 0 1-1.695-9.04c-1.13-10.169-2.26-25.989-2.825-48.023-1.13-21.469-1.13-46.893-1.13-75.141 0-25.989 1.13-53.107 3.39-82.486 2.26-28.249 5.085-58.192 7.345-88.7a1017.409 1017.409 0 0 1 57.062-5.085 392.205 392.205 0 0 0 52.542-7.345 51.819 51.819 0 0 0 12.994-5.085c3.386-2.258 5.086-6.212 5.086-10.732z" fill="#000000" p-id="9081" data-spm-anchor-id="a313x.collections_detail.0.i61.388a3a81mDM9LX" class="selected"></path></svg>