<?xml version="1.0" standalone="no"?><!DOCTYPE svg PUBLIC "-//W3C//DTD SVG 1.1//EN" "http://www.w3.org/Graphics/SVG/1.1/DTD/svg11.dtd"><svg t="1716616023270" class="icon" viewBox="0 0 1024 1024" version="1.1" xmlns="http://www.w3.org/2000/svg" p-id="9993" xmlns:xlink="http://www.w3.org/1999/xlink" width="200" height="200"><path d="M853.333333 195.047619a73.142857 73.142857 0 0 1 73.142857 73.142857v487.619048a73.142857 73.142857 0 0 1-73.142857 73.142857H170.666667a73.142857 73.142857 0 0 1-73.142857-73.142857V268.190476a73.142857 73.142857 0 0 1 73.142857-73.142857h682.666666z m-228.010666 192.999619c-9.557333 0.195048-18.919619 1.462857-28.086857 3.803429a73.947429 73.947429 0 0 0-28.086858 14.336 62.659048 62.659048 0 0 0-17.261714 23.113143 75.337143 75.337143 0 0 0-5.851428 29.257142c-0.195048 8.97219 1.170286 17.65181 4.096 26.038858 2.145524 5.851429 5.071238 11.215238 8.777142 16.091428 5.656381 7.021714 12.288 12.970667 19.894858 17.846857 9.557333 5.851429 19.602286 10.630095 30.134857 14.336l5.753904 2.267429c7.558095 3.193905 14.628571 7.241143 21.162667 12.068571 5.656381 4.486095 8.582095 10.24 8.777143 17.261715a19.651048 19.651048 0 0 1-7.021714 14.043428 27.794286 27.794286 0 0 1-17.846857 5.558857 110.201905 110.201905 0 0 1-33.938286-5.266285 131.169524 131.169524 0 0 1-29.549714-13.750858l-15.213715 43.885715a159.573333 159.573333 0 0 0 85.138286 23.405714c11.897905 0 23.503238-2.048 34.816-6.144a76.8 76.8 0 0 0 26.331429-16.384c7.216762-7.41181 12.483048-15.993905 15.798857-25.746286 2.340571-7.996952 3.608381-16.286476 3.803428-24.868571 0-8.777143-1.26781-17.456762-3.803428-26.038857a61.19619 61.19619 0 0 0-12.580572-21.065143c-5.071238-4.87619-10.630095-9.264762-16.676571-13.165714-10.727619-6.241524-21.942857-11.50781-33.645714-15.798858a92.91581 92.91581 0 0 1-25.746286-12.580571 27.794286 27.794286 0 0 1-6.729143-7.606857 17.017905 17.017905 0 0 1-2.048-8.192 15.36 15.36 0 0 1 7.899429-13.165714 36.327619 36.327619 0 0 1 18.724571-4.973715 126.780952 126.780952 0 0 1 48.566857 10.24l11.995429-43.300571a153.819429 153.819429 0 0 0-67.584-15.506286z m-244.882286 5.851429H316.952381l64.365714 232.594285h89.234286l64.658286-232.594285h-63.780572l-45.056 183.442285h-0.585143l-45.348571-183.442285z" p-id="9994" fill="#504A4A"></path></svg>