<?xml version="1.0" standalone="no"?><!DOCTYPE svg PUBLIC "-//W3C//DTD SVG 1.1//EN" "http://www.w3.org/Graphics/SVG/1.1/DTD/svg11.dtd"><svg t="1731488904060" class="icon" viewBox="0 0 1024 1024" version="1.1" xmlns="http://www.w3.org/2000/svg" p-id="8414" xmlns:xlink="http://www.w3.org/1999/xlink" width="200" height="200"><path d="M899.5 899.5h-775v-775h775v775z" fill="#FFFFFF" fill-opacity="0.75" p-id="8415"></path><path d="M137 137v750h750V137H137m-25-25h800v800H112V112z" fill="#000000" p-id="8416" data-spm-anchor-id="a313x.collections_detail.0.i50.388a3a81mDM9LX" class="selected"></path><path d="M698.289 502.361c0-22.892-1.2-46.386-2.41-69.277-2.41-22.892-4.217-46.386-6.626-69.88v-6.626a72.907 72.907 0 0 1 0.6-11.446c0-3.614 0.6-7.229 0.6-11.446 0-8.434-3.012-13.855-8.434-16.867A41.537 41.537 0 0 0 662.742 312a22.245 22.245 0 0 0-16.265 6.626c-4.819 4.819-7.229 9.639-7.229 15.06 0 9.639 0.6 18.675 3.012 27.108 1.807 9.036 3.614 18.072 4.819 27.108 2.41 19.277 4.819 38.554 7.831 57.229a465.814 465.814 0 0 1 3.614 57.831 470.821 470.821 0 0 1-3.614 59.036c-2.41 19.88-5.422 37.349-9.639 52.41-4.217 15.663-9.639 27.711-15.663 36.747-6.627 9.639-13.855 14.458-22.289 14.458s-16.867-6.024-24.7-19.277c-8.434-13.253-15.06-29.518-21.084-48.8a277.586 277.586 0 0 1-9.036-31.928q-4.518-16.265-7.229-30.723c-2.41-9.639-3.614-18.072-4.819-25.9-1.807-7.229-3.012-12.048-3.012-15.663a120.978 120.978 0 0 1-0.6-15.06 125.918 125.918 0 0 1-0.6-15.06 106.824 106.824 0 0 1 0.6-13.253c0-4.819 0.6-9.639 0.6-14.458a40.424 40.424 0 0 0-4.819-19.88c-3.614-4.819-10.241-7.831-19.88-7.831-6.627 0-12.048 2.41-16.867 7.229-4.819 5.422-6.627 10.843-6.627 16.265 0 2.41 0 4.217 0.6 5.422a6.507 6.507 0 0 0 1.807 4.217c0 2.41 0.6 4.217 0.6 5.422 0 2.41 0.6 4.217 0.6 6.024q0 12.651-5.422 39.759l-7.229 36.145-7.229 32.53c-1.2 6.024-3.614 13.855-6.024 24.7-3.012 10.843-6.627 22.289-10.241 33.133-4.217 10.843-9.036 21.084-15.06 30.12-6.626 9.639-14.458 14.458-24.1 14.458-3.614 0-6.627-1.807-10.241-6.024-3.614-3.614-7.229-9.036-10.843-15.663a144.32 144.32 0 0 1-10.223-23.493 173.591 173.591 0 0 1-9.041-28.313 299.748 299.748 0 0 1-8.429-51.807 478.032 478.032 0 0 1-2.41-51.2q0-16.265 1.807-37.952a325.455 325.455 0 0 1 4.819-41.566c1.2-7.831 2.41-15.663 4.819-22.892 1.2-7.229 3.614-13.253 6.024-19.277a22.831 22.831 0 0 1 3.614-7.831l8.436-12.656a13.731 13.731 0 0 0 1.807-6.627c0-3.614-3.012-7.229-7.831-11.446-4.819-3.614-11.446-6.024-19.88-6.024a41.945 41.945 0 0 0-15.06 3.012c-4.819 2.41-7.831 5.422-9.639 9.036-3.614 6.024-6.024 15.06-8.434 28.313-2.41 13.855-4.819 28.313-6.024 43.976q-2.711 23.495-3.619 45.182c-1.2 15.06-1.2 25.9-1.2 33.133 0 9.639 0 21.687 1.2 36.145a471.824 471.824 0 0 0 4.819 47.59 306.254 306.254 0 0 0 9.639 51.2c4.222 17.474 9.642 33.137 16.872 46.39 7.229 14.458 15.663 25.9 26.506 34.337 9.639 9.036 21.687 13.253 36.145 13.253q19.88 0 34.337-12.651c9.639-8.434 17.47-19.277 24.7-33.133 7.229-13.253 13.253-28.916 18.072-46.386s9.036-35.542 12.651-53.614c4.819 25.9 10.843 47.59 17.47 65.663 6.024 18.072 13.253 33.133 20.482 44.578s15.663 19.88 24.1 24.7a46.99 46.99 0 0 0 26.506 7.831c8.434 0 16.867-1.807 26.506-5.422a72.941 72.941 0 0 0 23.494-15.663c12.048-12.048 21.084-26.506 28.313-42.771q10.839-23.492 16.26-57.831c0.6-6.024 1.807-16.265 3.012-31.325 0.603-14.458 1.205-31.928 1.205-53.615z" fill="#000000" p-id="8417" data-spm-anchor-id="a313x.collections_detail.0.i49.388a3a81mDM9LX" class="selected"></path></svg>