<?xml version="1.0" standalone="no"?><!DOCTYPE svg PUBLIC "-//W3C//DTD SVG 1.1//EN" "http://www.w3.org/Graphics/SVG/1.1/DTD/svg11.dtd"><svg t="1716556361311" class="icon" viewBox="0 0 1024 1024" version="1.1" xmlns="http://www.w3.org/2000/svg" p-id="13446" width="200" height="200" xmlns:xlink="http://www.w3.org/1999/xlink"><path d="M497.777778 112.071111c213.048889 0 385.706667 173.795556 385.706666 387.982222 0 214.243556-172.657778 387.982222-385.706666 387.982223S112.071111 714.325333 112.071111 500.053333c0-214.186667 172.657778-387.982222 385.706667-387.982222z m-30.122667 61.667556c-165.546667 15.303111-295.310222 155.534222-295.310222 326.343111 0 170.808889 129.735111 311.011556 295.310222 326.314666z m60.273778 0v231.338666c23.125333 3.157333 40.96 23.125333 40.96 47.274667 0 24.177778-17.834667 44.117333-40.96 47.274667l-0.028445 289.991111a47.416889 47.416889 0 0 1 60.700445 25.230222 322.503111 322.503111 0 0 0 89.543111-41.955556 47.559111 47.559111 0 0 1-14.449778-34.247111c0-26.368 21.248-47.729778 47.416889-47.729777 15.132444 0 28.586667 7.111111 37.262222 18.204444a327.68 327.68 0 0 0 74.808889-209.066667c0-170.780444-129.706667-311.011556-295.253333-326.314666z m88.376889 374.044444c26.168889 0 47.388444 21.361778 47.388444 47.701333 0 26.368-21.219556 47.729778-47.388444 47.729778-26.168889 0-47.416889-21.361778-47.416889-47.729778 0-26.339556 21.219556-47.701333 47.416889-47.701333z m118.499555-119.267555c26.168889 0 47.416889 21.333333 47.416889 47.701333 0 26.339556-21.219556 47.701333-47.416889 47.701333-26.168889 0-47.388444-21.333333-47.388444-47.701333 0-26.339556 21.219556-47.701333 47.388444-47.701333zM640 261.518222c26.168889 0 47.416889 21.333333 47.416889 47.701334 0 26.339556-21.248 47.701333-47.416889 47.701333s-47.416889-21.333333-47.416889-47.701333c0-26.339556 21.248-47.701333 47.416889-47.701334z" fill="#ffffff" p-id="13447"></path></svg>